<svg width="12" height="12" viewBox="0 0 12 12" fill="none" xmlns="http://www.w3.org/2000/svg">
<path d="M6 10.9665C5.86565 10.9672 5.73303 10.9362 5.61283 10.8762C5.49263 10.8162 5.38822 10.7288 5.308 10.621L2.7775 7.25001C2.35881 6.65957 2.11054 5.96537 2.05985 5.24332C2.00916 4.52127 2.15799 3.79918 2.49008 3.15603C2.82217 2.51288 3.32472 1.97343 3.94277 1.59669C4.56082 1.21994 5.27057 1.0204 5.9944 1.0199C6.71823 1.01939 7.42825 1.21794 8.04683 1.59382C8.66541 1.9697 9.16871 2.50845 9.5017 3.15113C9.83469 3.79382 9.98453 4.5157 9.93485 5.23781C9.88517 5.95993 9.63787 6.65449 9.22 7.24551L6.6925 10.62C6.61228 10.728 6.50782 10.8156 6.38754 10.8758C6.26725 10.936 6.1345 10.967 6 10.9665ZM5.996 1.53301C5.15092 1.53036 4.33504 1.84206 3.707 2.40751C3.0772 2.96986 2.67581 3.74389 2.57903 4.58265C2.48225 5.42141 2.69682 6.26651 3.182 6.95751L5.7075 10.321C5.74136 10.3665 5.78542 10.4034 5.83613 10.4287C5.88685 10.4541 5.9428 10.4672 5.9995 10.467C6.05632 10.4671 6.11238 10.4539 6.16323 10.4286C6.21409 10.4033 6.25835 10.3664 6.2925 10.321L8.8145 6.95401C9.1586 6.46708 9.37012 5.89901 9.42825 5.3056C9.48639 4.7122 9.38916 4.11388 9.14611 3.56942C8.90306 3.02496 8.52255 2.55309 8.04196 2.20018C7.56138 1.84727 6.99725 1.62545 6.405 1.55651C6.26922 1.54101 6.13267 1.53316 5.996 1.53301Z" fill="#1d3557"/>
<path d="M6 6.25C5.75277 6.25 5.5111 6.17669 5.30554 6.03934C5.09998 5.90199 4.93976 5.70676 4.84515 5.47836C4.75054 5.24995 4.72579 4.99861 4.77402 4.75614C4.82225 4.51366 4.9413 4.29093 5.11612 4.11612C5.29093 3.9413 5.51366 3.82225 5.75614 3.77402C5.99861 3.72579 6.24995 3.75054 6.47836 3.84515C6.70676 3.93976 6.90199 4.09998 7.03934 4.30554C7.17669 4.5111 7.25 4.75277 7.25 5C7.25 5.33152 7.1183 5.64946 6.88388 5.88388C6.64946 6.1183 6.33152 6.25 6 6.25ZM6 4.25C5.85166 4.25 5.70666 4.29399 5.58332 4.3764C5.45999 4.45881 5.36386 4.57594 5.30709 4.71299C5.25033 4.85003 5.23547 5.00083 5.26441 5.14632C5.29335 5.2918 5.36478 5.42544 5.46967 5.53033C5.57456 5.63522 5.7082 5.70665 5.85368 5.73559C5.99917 5.76453 6.14997 5.74968 6.28701 5.69291C6.42406 5.63614 6.54119 5.54002 6.6236 5.41668C6.70601 5.29334 6.75 5.14834 6.75 5C6.75 4.80109 6.67098 4.61032 6.53033 4.46967C6.38968 4.32902 6.19891 4.25 6 4.25Z" fill="#1d3557"/>
</svg>
