
<svg width="100" height="63" viewBox="0 0 100 63" fill="none" xmlns="http://www.w3.org/2000/svg">
<g clip-path="url(#clip0_137_57)">
<path d="M79.9077 5.54943C79.9341 6.28226 79.8114 7.01285 79.5469 7.69759C79.2824 8.38233 78.8816 9.00719 78.3685 9.53487C77.8553 10.0625 77.2402 10.4822 76.56 10.7689C75.8798 11.0555 75.1483 11.2033 74.4093 11.2033C73.6702 11.2033 72.9388 11.0555 72.2586 10.7689C71.5783 10.4822 70.9633 10.0625 70.4501 9.53487C69.9369 9.00719 69.5361 8.38233 69.2717 7.69759C69.0072 7.01285 68.8845 6.28226 68.9108 5.54943C68.8845 4.8166 69.0072 4.08601 69.2717 3.40127C69.5361 2.71653 69.9369 2.09167 70.4501 1.56399C70.9633 1.03631 71.5783 0.616627 72.2586 0.32998C72.9388 0.0433317 73.6702 -0.104401 74.4093 -0.104401C75.1483 -0.104401 75.8798 0.0433317 76.56 0.32998C77.2402 0.616627 77.8553 1.03631 78.3685 1.56399C78.8816 2.09167 79.2824 2.71653 79.5469 3.40127C79.8114 4.08601 79.9341 4.8166 79.9077 5.54943Z" fill="#B1B1B1"/>
<path d="M75.6781 19.423H86.4374C86.4374 19.423 89.821 21.7052 86.4374 23.7447H74.231L69.1485 17.7443L61.4164 23.8695L70.5048 30.7092L70.1412 49.057L64.5484 48.8212L64.073 34.684L51.0347 27.109C51.0347 27.109 48.1334 23.7516 52.1183 20.3942L63.7234 9.11496C64.1506 8.76874 64.6423 8.5095 65.1706 8.35208C65.6988 8.19466 66.2531 8.14216 66.8019 8.19757C67.3506 8.25298 67.8829 8.41522 68.3683 8.675C68.8538 8.93479 69.2828 9.28701 69.6309 9.71152C72.5392 12.8331 75.6781 19.423 75.6781 19.423Z" fill="#B1B1B1"/>
<path d="M85.4936 42.8833L88.304 42.1619L83.5011 22.9123L80.4181 22.8221L85.4936 42.8833Z" fill="#B1B1B1"/>
<path d="M99.972 44.7701C99.9101 47.5235 99.0306 50.1976 97.4437 52.4572C95.8568 54.7168 93.6331 56.4615 91.0512 57.4725C88.4694 58.4836 85.6442 58.7161 82.9298 58.141C80.2153 57.5658 77.7323 56.2085 75.7919 54.2392C73.8515 52.2699 72.5399 49.7762 72.0216 47.0705C71.5034 44.3649 71.8014 41.5676 72.8783 39.0292C73.9553 36.4909 75.7633 34.3243 78.0758 32.8011C80.3883 31.2779 83.1024 30.4658 85.8781 30.4664C87.7501 30.4873 89.5996 30.8738 91.321 31.6039C93.0425 32.334 94.6021 33.3935 95.9109 34.7217C97.2197 36.05 98.2519 37.621 98.9487 39.3451C99.6456 41.0692 99.9933 42.9126 99.972 44.7701ZM85.906 32.5336C83.4626 32.4701 81.0555 33.1311 78.9926 34.4319C76.9296 35.7327 75.3044 37.6144 74.3246 39.8364C73.3449 42.0583 73.0552 44.5197 73.4925 46.9059C73.9297 49.2922 75.0742 51.4948 76.7795 53.2323C78.4848 54.9699 80.6736 56.1634 83.066 56.6604C85.4584 57.1574 87.9459 56.9353 90.2104 56.0224C92.475 55.1095 94.4138 53.5474 95.779 51.5356C97.1442 49.5238 97.8739 47.1538 97.8747 44.7285C97.9158 41.537 96.6783 38.4598 94.434 36.1732C92.1898 33.8865 89.1225 32.5775 85.906 32.5336Z" fill="#B1B1B1"/>
<path d="M70.4908 55.4042C70.5137 55.8598 70.3852 56.3102 70.125 56.6862C69.8648 57.0622 69.4873 57.3429 69.0506 57.4853C68.4964 57.6787 67.9112 57.7704 67.3238 57.7558C66.7521 57.7716 66.1833 57.67 65.653 57.4575C65.2519 57.305 64.8977 57.0516 64.6253 56.7222C64.4299 56.4638 64.3222 56.1504 64.3177 55.8274C64.3162 55.7333 64.334 55.6398 64.3701 55.5528C64.4061 55.4657 64.4597 55.3868 64.5274 55.321C64.5985 55.2523 64.6828 55.1985 64.7753 55.1627C64.8678 55.127 64.9665 55.11 65.0657 55.1129C65.225 55.102 65.3824 55.1516 65.5062 55.2516C65.6263 55.363 65.7257 55.4945 65.7998 55.6401C65.9713 55.9252 66.2116 56.1635 66.4989 56.3337C66.822 56.5078 67.1874 56.5895 67.5545 56.5696C67.8678 56.5822 68.1774 56.4999 68.4424 56.3337C68.5409 56.2761 68.6236 56.1954 68.6833 56.0986C68.7431 56.0019 68.778 55.8921 68.785 55.7788C68.7953 55.6419 68.7675 55.5047 68.7047 55.3824C68.6418 55.2601 68.5462 55.1572 68.4284 55.0851C68.054 54.8914 67.6539 54.7513 67.2399 54.6689C66.7223 54.5494 66.215 54.3893 65.7229 54.1903C65.3612 54.0332 65.0407 53.7959 64.7861 53.4966C64.5454 53.2115 64.4186 52.8486 64.4295 52.4769C64.4321 52.1118 64.5467 51.7561 64.7581 51.4572C64.9961 51.1189 65.3257 50.8543 65.7089 50.6941C66.1937 50.4944 66.7152 50.3975 67.2399 50.4097C67.6635 50.4058 68.086 50.4523 68.4983 50.5485C68.8271 50.628 69.141 50.7592 69.4281 50.9369C69.6544 51.0767 69.8494 51.2608 70.0014 51.478C70.1241 51.6457 70.1924 51.8465 70.1972 52.0537C70.1987 52.1479 70.1808 52.2413 70.1448 52.3283C70.1087 52.4154 70.0552 52.4943 69.9874 52.5601C69.8227 52.6998 69.6093 52.7696 69.3932 52.7544C69.2236 52.7616 69.0571 52.7074 68.9248 52.6018C68.7572 52.4602 68.607 52.2996 68.4774 52.1231C68.3443 51.9556 68.1807 51.8144 67.995 51.7069C67.7612 51.5906 67.5012 51.5357 67.2399 51.5474C66.955 51.5375 66.6734 51.6098 66.429 51.7555C66.3355 51.8065 66.2569 51.8805 66.2005 51.9704C66.1442 52.0603 66.1122 52.163 66.1074 52.2688C66.105 52.3597 66.1255 52.4499 66.167 52.531C66.2085 52.6121 66.2697 52.6817 66.3451 52.7335C66.5371 52.8749 66.7558 52.9764 66.9883 53.0318C67.2539 53.1151 67.6245 53.2122 68.0929 53.3232C68.5773 53.4273 69.0469 53.5904 69.4911 53.8088C69.8122 53.9741 70.0899 54.2117 70.302 54.5024C70.4597 54.7756 70.5258 55.0914 70.4908 55.4042Z" fill="#004750"/>
<path d="M37.8985 20.6647H32.7321V59.705H37.8985V20.6647Z" fill="#004750"/>
<path d="M64.0101 44.888C63.9783 47.9323 63.0396 50.8992 61.3119 53.4151C59.5843 55.9311 57.1451 57.8836 54.3014 59.0268C51.4577 60.1701 48.3367 60.4529 45.3313 59.8398C42.326 59.2266 39.5706 57.7448 37.4122 55.581C35.2538 53.4173 33.7889 50.6682 33.2019 47.68C32.6149 44.6918 32.932 41.5981 34.1134 38.7884C35.2948 35.9787 37.2876 33.5786 39.8409 31.8903C42.3941 30.2021 45.3937 29.3012 48.462 29.301C52.6066 29.323 56.5728 30.9774 59.4885 33.9003C62.4041 36.8233 64.0305 40.7755 64.0101 44.888ZM48.2802 34.0319C42.5405 34.0319 37.8845 38.853 37.8845 44.7909C37.8845 50.7288 42.5405 55.5499 48.2802 55.5499C54.0199 55.5499 58.6759 50.7357 58.6759 44.7909C58.6759 38.8461 54.0199 34.0319 48.2802 34.0319Z" fill="#004750"/>
<path d="M31.278 20.6647H26.1116V59.705H31.278V20.6647Z" fill="#004750"/>
<path d="M15.5481 29.301C19.6579 29.387 23.5701 31.0674 26.446 33.9818C29.3219 36.8962 30.9325 40.8127 30.9325 44.8915C30.9325 48.9703 29.3219 52.8867 26.446 55.8011C23.5701 58.7156 19.6579 60.3959 15.5481 60.4819C11.4383 60.3959 7.52606 58.7156 4.65017 55.8011C1.77427 52.8867 0.163666 48.9703 0.163666 44.8915C0.163666 40.8127 1.77427 36.8962 4.65017 33.9818C7.52606 31.0674 11.4383 29.387 15.5481 29.301ZM5.33417 44.7909C5.33417 50.7357 9.99022 55.5499 15.7299 55.5499C21.4695 55.5499 26.1256 50.7357 26.1256 44.7909C26.1256 38.8461 21.4695 34.0319 15.7299 34.0319C9.99022 34.0319 5.33417 38.8461 5.33417 44.7909Z" fill="#004750"/>
</g>
<defs>
<clipPath id="clip0_137_57">
<rect width="100" height="63" fill="white"/>
</clipPath>
</defs>
</svg>
