<svg width="12" height="12" viewBox="0 0 12 12" fill="none" xmlns="http://www.w3.org/2000/svg">
<path d="M10.2785 2.79727L9.03047 1.55039C8.87812 1.39805 8.67422 1.3125 8.45859 1.3125C8.24297 1.3125 8.03906 1.39688 7.88672 1.55039L6.54258 2.89219C6.39023 3.04453 6.30469 3.24961 6.30469 3.46523C6.30469 3.68203 6.38906 3.88477 6.54258 4.03828L7.59258 5.08945C7.35338 5.64678 7.00969 6.15316 6.58008 6.58125C6.15 7.01367 5.64727 7.35469 5.08945 7.59609L4.03945 6.54492C3.88711 6.39258 3.6832 6.30703 3.46758 6.30703C3.36122 6.30664 3.25586 6.32748 3.15766 6.36832C3.05946 6.40917 2.9704 6.46921 2.8957 6.54492L1.55039 7.88672C1.39805 8.03906 1.3125 8.24414 1.3125 8.45977C1.3125 8.67656 1.39688 8.8793 1.55039 9.03281L2.79727 10.2797C3.05742 10.5398 3.41602 10.6887 3.78398 10.6887C3.86016 10.6887 3.93398 10.6828 4.00898 10.6699C5.56055 10.4145 7.10039 9.58828 8.34375 8.34609C9.58594 7.10156 10.4109 5.56172 10.6688 4.00898C10.7426 3.56836 10.5949 3.11484 10.2785 2.79727ZM9.83789 3.86953C9.60938 5.25117 8.86641 6.6293 7.74727 7.74844C6.62812 8.86758 5.25117 9.61055 3.86953 9.83906C3.69609 9.86836 3.51797 9.80977 3.39141 9.68437L2.1668 8.45977L3.46523 7.16016L4.86914 8.56641L4.87969 8.57695L5.13281 8.4832C5.90031 8.20102 6.59726 7.75533 7.17538 7.17701C7.7535 6.59869 8.19895 5.90158 8.48086 5.13398L8.57461 4.88086L7.15898 3.46641L8.45742 2.1668L9.68203 3.39141C9.80859 3.51797 9.86719 3.69609 9.83789 3.86953Z" fill="#1d3557"/>
</svg>
