<svg width="12" height="12" viewBox="0 0 12 12" fill="none" xmlns="http://www.w3.org/2000/svg">
<path d="M9.65859 8.20195C9.36527 7.9084 9.02254 7.6688 8.64609 7.49414C9.17695 7.06406 9.51562 6.40781 9.51562 5.67188C9.51562 4.37344 8.43281 3.3082 7.13437 3.32813C5.85586 3.34805 4.82578 4.38984 4.82578 5.67188C4.82578 6.40781 5.16562 7.06406 5.69531 7.49414C5.3188 7.66867 4.97604 7.90828 4.68281 8.20195C4.04297 8.84297 3.67969 9.68906 3.65625 10.5914C3.65594 10.6039 3.65813 10.6164 3.6627 10.628C3.66727 10.6396 3.67413 10.6503 3.68287 10.6592C3.6916 10.6682 3.70204 10.6753 3.71357 10.6801C3.7251 10.685 3.73749 10.6875 3.75 10.6875H4.40625C4.45664 10.6875 4.49883 10.6477 4.5 10.5973C4.52226 9.91758 4.79766 9.28125 5.28164 8.79844C5.5293 8.54946 5.82389 8.35207 6.14835 8.2177C6.47281 8.08333 6.82069 8.01465 7.17187 8.01562C7.88555 8.01563 8.55703 8.29336 9.06211 8.79844C9.54492 9.28125 9.82031 9.91758 9.84375 10.5973C9.84492 10.6477 9.88711 10.6875 9.9375 10.6875H10.5937C10.6063 10.6875 10.6186 10.685 10.6302 10.6801C10.6417 10.6753 10.6521 10.6682 10.6609 10.6592C10.6696 10.6503 10.6765 10.6396 10.681 10.628C10.6856 10.6164 10.6878 10.6039 10.6875 10.5914C10.6641 9.68906 10.3008 8.84297 9.65859 8.20195ZM7.17187 7.17188C6.77109 7.17188 6.39375 7.01602 6.11133 6.73242C5.96959 6.5918 5.85763 6.42408 5.78213 6.23925C5.70663 6.05442 5.66913 5.85628 5.67187 5.65664C5.67539 5.27227 5.82891 4.90078 6.09726 4.62539C6.37851 4.33711 6.75469 4.17656 7.15664 4.17188C7.55391 4.16836 7.93945 4.32305 8.22305 4.60078C8.51367 4.88555 8.67305 5.26641 8.67305 5.67188C8.67305 6.07266 8.51719 6.44883 8.23359 6.73242C8.09446 6.87222 7.92898 6.98304 7.74674 7.05847C7.5645 7.13391 7.36911 7.17245 7.17187 7.17188ZM4.23633 5.98125C4.22578 5.8793 4.21992 5.77617 4.21992 5.67188C4.21992 5.48555 4.2375 5.30391 4.27031 5.12695C4.27851 5.08477 4.25625 5.04141 4.21758 5.02383C4.0582 4.95234 3.91172 4.85391 3.78516 4.72969C3.63602 4.58509 3.51867 4.41099 3.44058 4.2185C3.3625 4.02601 3.32539 3.81935 3.33164 3.61172C3.34219 3.23555 3.49336 2.87813 3.75703 2.60859C4.04648 2.31211 4.43555 2.15039 4.84922 2.15508C5.22305 2.15859 5.58398 2.30273 5.85703 2.5582C5.94961 2.64492 6.0293 2.74102 6.09609 2.84414C6.11953 2.88047 6.16523 2.8957 6.20508 2.88164C6.41133 2.81016 6.6293 2.75977 6.85312 2.73633C6.91875 2.7293 6.95625 2.65898 6.92695 2.60039C6.54609 1.84688 5.76797 1.32656 4.86797 1.3125C3.56836 1.29258 2.48555 2.35781 2.48555 3.65508C2.48555 4.39102 2.82422 5.04727 3.35508 5.47734C2.98242 5.64961 2.63906 5.8875 2.34141 6.18516C1.69922 6.82617 1.33594 7.67227 1.3125 8.57578C1.31219 8.58829 1.31438 8.60073 1.31895 8.61238C1.32352 8.62402 1.33038 8.63464 1.33911 8.64359C1.34785 8.65255 1.35829 8.65966 1.36982 8.66452C1.38135 8.66938 1.39374 8.67188 1.40625 8.67188H2.06367C2.11406 8.67188 2.15625 8.63203 2.15742 8.58164C2.17969 7.90195 2.45508 7.26563 2.93906 6.78281C3.28359 6.43828 3.70547 6.19922 4.16601 6.0832C4.21172 6.07148 4.24219 6.02813 4.23633 5.98125Z" fill="#1d3557"/>
</svg>
