<svg width="12" height="12" viewBox="0 0 12 12" fill="none" xmlns="http://www.w3.org/2000/svg">
<path d="M11.0742 4.82812H8.07422C8.02266 4.82812 7.98047 4.87031 7.98047 4.92188V5.48438C7.98047 5.53594 8.02266 5.57812 8.07422 5.57812H11.0742C11.1258 5.57812 11.168 5.53594 11.168 5.48438V4.92188C11.168 4.87031 11.1258 4.82812 11.0742 4.82812ZM9.50391 6.42188H8.07422C8.02266 6.42188 7.98047 6.46406 7.98047 6.51562V7.07812C7.98047 7.12969 8.02266 7.17188 8.07422 7.17188H9.50391C9.55547 7.17188 9.59766 7.12969 9.59766 7.07812V6.51562C9.59766 6.46406 9.55547 6.42188 9.50391 6.42188ZM5.59336 3.7793H5.08594C5.01328 3.7793 4.95469 3.83789 4.95469 3.91055V6.8168C4.95469 6.85898 4.97461 6.89766 5.0086 6.92227L6.75352 8.19492C6.81211 8.23711 6.89414 8.22539 6.93633 8.1668L7.2375 7.75547V7.7543C7.27969 7.6957 7.2668 7.61367 7.2082 7.57148L5.72344 6.49805V3.91055C5.72461 3.83789 5.66485 3.7793 5.59336 3.7793Z" fill="#1d3557"/>
<path d="M9.43125 7.89727H8.75391C8.68828 7.89727 8.62617 7.93125 8.59101 7.9875C8.44219 8.22305 8.26875 8.44102 8.06953 8.64024C7.72617 8.9836 7.32656 9.25313 6.88242 9.44063C6.42187 9.63516 5.9332 9.7336 5.4293 9.7336C4.92422 9.7336 4.43555 9.63516 3.97617 9.44063C3.53203 9.25313 3.13242 8.9836 2.78906 8.64024C2.4457 8.29688 2.17617 7.89727 1.98867 7.45313C1.79414 6.99375 1.6957 6.50508 1.6957 6C1.6957 5.49492 1.79414 5.00742 1.98867 4.54688C2.17617 4.10274 2.4457 3.70313 2.78906 3.35977C3.13242 3.01641 3.53203 2.74688 3.97617 2.55938C4.43555 2.36485 4.92539 2.26641 5.4293 2.26641C5.93437 2.26641 6.42305 2.36485 6.88242 2.55938C7.32656 2.74688 7.72617 3.01641 8.06953 3.35977C8.26875 3.55899 8.44219 3.77696 8.59101 4.0125C8.62617 4.06875 8.68828 4.10274 8.75391 4.10274H9.43125C9.51211 4.10274 9.56367 4.01836 9.52734 3.94688C8.76328 2.42696 7.21406 1.43906 5.48437 1.41914C2.95195 1.3875 0.848438 3.46055 0.84375 5.99063C0.839063 8.52539 2.89336 10.582 5.42813 10.582C7.18008 10.582 8.75508 9.59063 9.52734 8.05313C9.56367 7.98164 9.51094 7.89727 9.43125 7.89727Z" fill="#1d3557"/>
</svg>
