<svg width="12" height="12" viewBox="0 0 12 12" fill="none" xmlns="http://www.w3.org/2000/svg">
<g clip-path="url(#clip0_215_27)">
<path d="M7.5 5.5V2.5L6 1L4.5 2.5V3.5H1.5V10.5H10.5V5.5H7.5ZM3.5 9.5H2.5V8.5H3.5V9.5ZM3.5 7.5H2.5V6.5H3.5V7.5ZM3.5 5.5H2.5V4.5H3.5V5.5ZM6.5 9.5H5.5V8.5H6.5V9.5ZM6.5 7.5H5.5V6.5H6.5V7.5ZM6.5 5.5H5.5V4.5H6.5V5.5ZM6.5 3.5H5.5V2.5H6.5V3.5ZM9.5 9.5H8.5V8.5H9.5V9.5ZM9.5 7.5H8.5V6.5H9.5V7.5Z" fill="#457b9d"/>
</g>
<defs>
<clipPath id="clip0_215_27">
<rect width="12" height="12" fill="white"/>
</clipPath>
</defs>
</svg>
