<svg width="13" height="13" viewBox="0 0 13 13" fill="none" xmlns="http://www.w3.org/2000/svg">
<path d="M10.6588 2.17087H1.47134C1.41978 2.17087 1.37759 2.21306 1.37759 2.26462V3.01462C1.37759 3.06618 1.41978 3.10837 1.47134 3.10837H10.6588C10.7104 3.10837 10.7526 3.06618 10.7526 3.01462V2.26462C10.7526 2.21306 10.7104 2.17087 10.6588 2.17087ZM10.6588 9.48337H1.47134C1.41978 9.48337 1.37759 9.52556 1.37759 9.57712V10.3271C1.37759 10.3787 1.41978 10.4209 1.47134 10.4209H10.6588C10.7104 10.4209 10.7526 10.3787 10.7526 10.3271V9.57712C10.7526 9.52556 10.7104 9.48337 10.6588 9.48337ZM10.6588 5.82712H1.47134C1.41978 5.82712 1.37759 5.86931 1.37759 5.92087V6.67087C1.37759 6.72243 1.41978 6.76462 1.47134 6.76462H10.6588C10.7104 6.76462 10.7526 6.72243 10.7526 6.67087V5.92087C10.7526 5.86931 10.7104 5.82712 10.6588 5.82712Z" fill="black"/>
</svg>
