<svg width="13" height="13" viewBox="0 0 13 13" fill="none" xmlns="http://www.w3.org/2000/svg">
<g clip-path="url(#clip0_214_22)">
<path d="M0.997139 1.73917C12.1909 1.73917 9.58933 9.17588 9.60105 10.3243L11.4971 12.2392H10.8878L9.23776 10.5704C8.3237 10.6689 6.32214 11.379 4.21276 9.70323C2.0987 8.02745 2.21589 6.0212 0.997139 1.73917ZM2.86511 2.81729C1.70026 2.26651 2.74323 3.03292 2.74323 3.03292C3.80261 3.76417 4.29011 4.76026 4.8573 5.84307C5.59558 7.25401 6.70886 9.11729 8.23698 9.77354C9.76042 10.4298 9.03854 10.0665 8.37761 9.57432C7.71667 9.07745 6.77917 7.53526 6.24479 6.52276C5.50183 5.11651 4.81511 3.74307 2.86511 2.81729Z" fill="black"/>
</g>
<defs>
<clipPath id="clip0_214_22">
<rect width="12" height="12" fill="white" transform="translate(0.247139 0.989166)"/>
</clipPath>
</defs>
</svg>
