<svg width="12" height="12" viewBox="0 0 12 12" fill="none" xmlns="http://www.w3.org/2000/svg">
<path d="M1.50244 1.50137H10.5025C10.7786 1.50137 11.0025 1.72523 11.0025 2.00137V10.0013C11.0025 10.2775 10.7786 10.5013 10.5025 10.5013H1.50244C1.2263 10.5013 1.00244 10.2775 1.00244 10.0013V2.00137C1.00244 1.72523 1.2263 1.50137 1.50244 1.50137ZM2.00244 2.50137V9.50135H10.0025V2.50137H2.00244ZM5.02745 5.50135H7.50245V6.50135H5.02745C5.14325 7.07195 5.6477 7.50135 6.25245 7.50135C6.56005 7.50135 6.84165 7.3903 7.0594 7.206L7.9099 7.773C7.49865 8.22075 6.9083 8.50135 6.25245 8.50135C5.0943 8.50135 4.14054 7.62635 4.01618 6.50135H3.50244V5.50135H4.01618C4.14054 4.37638 5.0943 3.50137 6.25245 3.50137C6.9083 3.50137 7.49865 3.78201 7.9099 4.22975L7.05945 4.79675C6.8417 4.61248 6.56005 4.50137 6.25245 4.50137C5.6477 4.50137 5.14325 4.93081 5.02745 5.50135Z" fill="black"/>
</svg>
